<svg width="52" height="52" viewBox="0 0 52 52" fill="none" xmlns="http://www.w3.org/2000/svg">
<path d="M19.8704 26.1126L16.8068 29.1762L25.9999 38.3716L35.1931 29.1784L32.1273 26.1147L28.1666 30.0732L28.1666 13.7431L23.8333 13.7431L23.8333 30.0732L19.8704 26.1126Z" fill="white"/>
<path fill-rule="evenodd" clip-rule="evenodd" d="M9.14758 42.8523C18.4556 52.1603 33.5443 52.1603 42.8523 42.8523C52.1603 33.5443 52.1602 18.4556 42.8522 9.14758C33.5442 -0.160414 18.4556 -0.160413 9.14758 9.14759C-0.160418 18.4556 -0.160417 33.5443 9.14758 42.8523ZM12.2112 39.7886C15.8682 43.4456 20.8282 45.5 25.9999 45.5C31.1717 45.5 36.1316 43.4456 39.7886 39.7886C43.4456 36.1316 45.5 31.1717 45.5 25.9999C45.5 20.8282 43.4456 15.8682 39.7886 12.2113C36.1316 8.55427 31.1717 6.4998 25.9999 6.4998C20.8282 6.4998 15.8682 8.55427 12.2112 12.2113C8.55426 15.8682 6.4998 20.8282 6.4998 25.9999C6.4998 31.1717 8.55427 36.1316 12.2112 39.7886Z" fill="white"/>
</svg>
