<svg width="261" height="94" viewBox="0 0 261 94" fill="none" xmlns="http://www.w3.org/2000/svg">
<g clip-path="url(#clip0_996_137)">
<path d="M108.121 22.1155H133.689C133.77 22.154 133.81 22.1925 133.81 22.231V27.1969C133.81 27.2739 133.77 27.3124 133.689 27.3124H113.392V44.0001C116.906 40.9975 120.804 39.4961 125.086 39.4961H125.692C129.892 39.4961 133.75 40.9783 137.264 43.9424C140.899 47.407 142.717 51.3335 142.717 55.722V56.2994C142.717 60.3414 141.162 64.037 138.051 67.3861C134.416 70.8507 130.296 72.583 125.692 72.583H125.086C120.804 72.583 116.906 71.0817 113.392 68.079V71.7168C113.392 71.7939 113.352 71.8323 113.271 71.8323H108.121C108.04 71.8323 108 71.7939 108 71.7168V22.231C108 22.154 108.04 22.1155 108.121 22.1155ZM113.392 56.0107C113.392 59.3983 114.826 62.3047 117.694 64.7299C119.996 66.5392 122.561 67.4439 125.389 67.4439C128.903 67.4439 131.932 66.0773 134.477 63.3441C136.375 61.1499 137.324 58.7054 137.324 56.0107C137.324 52.6616 135.911 49.7744 133.083 47.3492C130.741 45.5399 128.176 44.6353 125.389 44.6353C121.834 44.6353 118.785 45.9827 116.24 48.6773C114.342 50.9101 113.392 53.3545 113.392 56.0107Z" fill="white"/>
<path d="M155.761 22.1155H181.571C181.652 22.1155 181.693 22.154 181.693 22.231V72.0633C181.693 72.1403 181.652 72.1788 181.571 72.1788H176.361C176.28 72.1788 176.24 72.1403 176.24 72.0633V68.3677C172.685 71.4088 168.767 72.9294 164.486 72.9294H163.88C159.639 72.9294 155.741 71.4281 152.186 68.4254C148.511 64.9224 146.673 60.9573 146.673 56.5304V55.953C146.673 51.9109 148.248 48.1961 151.399 44.8086C155.074 41.3055 159.235 39.5539 163.88 39.5539H164.486C168.767 39.5539 172.685 41.0744 176.24 44.1156V27.3124H155.761C155.68 27.3124 155.64 27.2739 155.64 27.1969V22.231C155.64 22.154 155.68 22.1155 155.761 22.1155ZM152.126 56.2416C152.126 59.6293 153.56 62.555 156.428 65.0186C158.77 66.8279 161.355 67.7325 164.183 67.7325C167.737 67.7325 170.807 66.3659 173.392 63.6328C175.29 61.4001 176.24 58.9364 176.24 56.2416C176.24 53.1621 175.008 50.4096 172.544 47.9844C170.08 45.8287 167.273 44.7507 164.122 44.7507C160.608 44.7507 157.558 46.1173 154.973 48.8506C153.075 51.0833 152.126 53.547 152.126 56.2416Z" fill="white"/>
<path d="M191.441 22H221.432C221.513 22 221.553 22.0385 221.553 22.1155V27.0237C221.028 27.4856 216.645 31.4121 208.405 38.8032V38.861C212.243 39.9004 215.292 41.7481 217.554 44.4044C220.22 47.6379 221.553 51.1025 221.553 54.7981V55.2023C221.553 59.9373 219.594 64.0755 215.676 67.6171C212.202 70.3888 208.365 71.7746 204.165 71.7746H203.74C198.934 71.7746 194.693 69.946 191.017 66.289C188.674 63.5943 187.301 61.0536 186.897 58.6668C186.857 58.6668 186.776 58.2819 186.655 57.5121C186.857 57.3581 188.573 56.6651 191.805 55.4333H191.865C191.865 57.7815 192.835 60.149 194.773 62.5357C197.399 65.2688 200.489 66.6354 204.043 66.6354C208.123 66.6354 211.476 64.9031 214.1 61.4385C215.474 59.4368 216.161 57.3003 216.161 55.0291C216.161 51.141 214.343 47.9459 210.708 45.4437C208.608 44.1349 206.366 43.4804 203.983 43.4804C203.175 43.4804 202.084 43.6152 200.711 43.8847V38.7455C200.832 38.4375 201.095 38.1296 201.499 37.8216L213.374 27.1391H191.441C191.36 27.1391 191.32 27.1006 191.32 27.0237V22.1155C191.36 22.0385 191.401 22 191.441 22Z" fill="white"/>
<path d="M235.046 22.1155H260.856C260.937 22.1155 260.977 22.154 260.977 22.231V72.0633C260.977 72.1403 260.937 72.1788 260.856 72.1788H255.645C255.565 72.1788 255.524 72.1403 255.524 72.0633V68.3677C251.97 71.4088 248.052 72.9294 243.771 72.9294H243.165C238.923 72.9294 235.026 71.4281 231.471 68.4254C227.795 64.9224 225.958 60.9573 225.958 56.5304V55.953C225.958 51.9109 227.533 48.1961 230.684 44.8086C234.359 41.3055 238.519 39.5539 243.165 39.5539H243.771C248.052 39.5539 251.97 41.0744 255.524 44.1156V27.3124H235.046C234.965 27.3124 234.924 27.2739 234.924 27.1969V22.231C234.924 22.154 234.965 22.1155 235.046 22.1155ZM231.41 56.2416C231.41 59.6293 232.844 62.555 235.712 65.0186C238.055 66.8279 240.64 67.7325 243.467 67.7325C247.022 67.7325 250.091 66.3659 252.676 63.6328C254.575 61.4001 255.524 58.9364 255.524 56.2416C255.524 53.1621 254.292 50.4096 251.828 47.9844C249.365 45.8287 246.557 44.7507 243.407 44.7507C239.893 44.7507 236.843 46.1173 234.258 48.8506C232.36 51.0833 231.41 53.547 231.41 56.2416Z" fill="white"/>
</g>
<g clip-path="url(#clip1_996_137)">
<path d="M47 94C21.0426 94 0 72.9574 0 47C0 21.0426 21.0426 0 47 0C72.9574 0 94 21.0426 94 47C94 72.9574 72.9574 94 47 94Z" fill="#FBFF4B"/>
<path d="M69.9279 26.2532H49.5324C49.4686 26.2532 49.4367 26.2851 49.4367 26.349V67.6665C49.4367 67.7303 49.4686 67.7623 49.5324 67.7623H53.6498C53.7136 67.7623 53.7456 67.7303 53.7456 67.6665V64.6024C56.5544 67.1239 59.6504 68.3847 63.0337 68.3847H63.5124C66.8638 68.3847 69.9438 67.1398 72.7527 64.6503C75.6571 61.7458 77.1093 58.4582 77.1093 54.7876V54.3089C77.1093 50.9576 75.8646 47.8775 73.375 45.0687C70.4704 42.1642 67.1829 40.7119 63.5124 40.7119H63.0337C59.6504 40.7119 56.5544 41.9727 53.7456 44.4942V30.5621H69.9279C69.9917 30.5621 70.0237 30.5302 70.0237 30.4663V26.349C70.0237 26.2851 69.9917 26.2532 69.9279 26.2532ZM72.8004 54.5482C72.8004 57.357 71.6674 59.7828 69.4012 61.8255C67.55 63.3257 65.5072 64.0758 63.273 64.0758C60.4643 64.0758 58.0385 62.9426 55.9957 60.6764C54.4957 58.8253 53.7456 56.7826 53.7456 54.5482C53.7456 51.9949 54.719 49.7127 56.6661 47.7019C58.613 45.9145 60.8313 45.0208 63.3209 45.0208C66.0978 45.0208 68.5076 46.1539 70.5503 48.42C72.0505 50.2713 72.8004 52.314 72.8004 54.5482Z" fill="black"/>
<path d="M44.1272 26.2532H23.9233C23.8595 26.2851 23.8275 26.317 23.8275 26.349V30.4663C23.8275 30.5302 23.8595 30.5621 23.9233 30.5621H39.962V44.3984C37.1851 41.9089 34.1051 40.664 30.7217 40.664H30.243C26.9235 40.664 23.8754 41.8929 21.0985 44.3505C18.2259 47.2232 16.7897 50.4788 16.7897 54.1174V54.5961C16.7897 57.9476 18.0185 61.0116 20.4762 63.7885C23.3488 66.6611 26.6044 68.0974 30.243 68.0974H30.7217C34.1051 68.0974 37.1851 66.8526 39.962 64.363V67.3792C39.962 67.443 39.9938 67.475 40.0578 67.475H44.1272C44.191 67.475 44.223 67.443 44.223 67.3792V26.349C44.223 26.2851 44.191 26.2532 44.1272 26.2532ZM39.962 54.3568C39.962 57.1655 38.8289 59.5754 36.5628 61.5862C34.7434 63.0863 32.7167 63.8364 30.4823 63.8364C27.7056 63.8364 25.3117 62.7033 23.3009 60.4371C21.8008 58.6178 21.0507 56.591 21.0507 54.3568C21.0507 51.5799 22.1678 49.1861 24.402 47.1753C26.2533 45.6751 28.2801 44.925 30.4823 44.925C33.2912 44.925 35.701 46.0422 37.7117 48.2765C39.2119 50.1277 39.962 52.1544 39.962 54.3568Z" fill="black"/>
</g>
<defs>
<clipPath id="clip0_996_137">
<rect width="153" height="51" fill="white" transform="translate(108 22)"/>
</clipPath>
<clipPath id="clip1_996_137">
<rect width="94" height="94" fill="white" transform="matrix(-1 0 0 1 94 0)"/>
</clipPath>
</defs>
</svg>
