<svg width="49" height="49" viewBox="0 0 49 49" fill="none" xmlns="http://www.w3.org/2000/svg">
<path fill-rule="evenodd" clip-rule="evenodd" d="M32.2676 0.900391H17.5322C4.08409 0.900391 0.899902 4.08458 0.899902 17.5327V32.2681C0.899902 45.7162 4.08409 48.9004 17.5322 48.9004H32.2676C45.7157 48.9004 48.8999 45.7162 48.8999 32.2681V17.5327C48.8999 4.08458 45.7157 0.900391 32.2676 0.900391ZM39.1441 16.1442C40.1942 16.1442 40.4313 16.6862 40.1942 17.4314C39.8242 19.1394 36.7511 23.6699 35.7993 25.0732C35.6184 25.3398 35.5141 25.4936 35.5196 25.4936C35.1469 26.1033 35.0114 26.3743 35.5196 27.0518C35.7032 27.3023 36.0927 27.6845 36.5379 28.1213C36.9957 28.5705 37.5124 29.0776 37.9246 29.5585C39.4151 31.2522 40.5668 32.6749 40.8717 33.6573C41.1427 34.6396 40.6685 35.1478 39.6522 35.1478H36.1632C35.2385 35.1478 34.7619 34.6167 33.7461 33.4851C33.3106 32.9998 32.776 32.4042 32.0644 31.6926C29.998 29.694 29.0834 29.423 28.5753 29.423C27.8639 29.423 27.6607 29.5924 27.6607 30.6086V33.7589C27.6607 34.6058 27.3897 35.1139 25.154 35.1139C21.4617 35.1139 17.3629 32.8782 14.4836 28.7116C10.1476 22.6142 8.96204 18.0073 8.96204 17.0927C8.96204 16.5846 9.13141 16.1104 10.1476 16.1104H13.6706C14.5513 16.1104 14.8901 16.483 15.2288 17.4653C16.9564 22.4449 19.8357 26.8147 21.0213 26.8147C21.4617 26.8147 21.6649 26.6114 21.6649 25.4936V20.3446C21.5813 18.8811 21.0718 18.2435 20.694 17.7706C20.4597 17.4774 20.2761 17.2475 20.2761 16.9233C20.2761 16.5168 20.6148 16.1104 21.1568 16.1104H26.6445C27.3897 16.1104 27.6607 16.5168 27.6607 17.3976V24.3418C27.6607 25.0871 27.9656 25.3581 28.2027 25.3581C28.6431 25.3581 29.0157 25.0871 29.8287 24.2741C32.3354 21.4625 34.1307 17.1266 34.1307 17.1266C34.3678 16.6185 34.7743 16.1442 35.655 16.1442H39.1441Z" fill="white"/>
</svg>
