<svg width="66" height="66" viewBox="0 0 66 66" fill="none" xmlns="http://www.w3.org/2000/svg">
<path d="M24.513 33.1559L20.271 37.3979L33 50.1299L45.729 37.4009L41.484 33.1589L36 38.6399L36 16.0289L30 16.0289L30 38.6399L24.513 33.1559Z" fill="#FBFF4B"/>
<path fill-rule="evenodd" clip-rule="evenodd" d="M9.666 56.334C22.554 69.222 43.446 69.222 56.334 56.334C69.222 43.446 69.222 22.554 56.334 9.666C43.446 -3.222 22.554 -3.222 9.666 9.66601C-3.222 22.554 -3.222 43.446 9.666 56.334ZM13.908 52.092C18.9715 57.1555 25.8391 60.0002 33 60.0002C40.1609 60.0002 47.0285 57.1555 52.092 52.092C57.1555 47.0285 60.0002 40.1609 60.0002 33C60.0002 25.8391 57.1555 18.9715 52.092 13.908C47.0285 8.84449 40.1609 5.99984 33 5.99984C25.8391 5.99984 18.9715 8.84449 13.908 13.908C8.84448 18.9715 5.99983 25.8391 5.99983 33C5.99983 40.1609 8.84448 47.0285 13.908 52.092Z" fill="#FBFF4B"/>
</svg>
