<svg width="48" height="48" viewBox="0 0 48 48" fill="none" xmlns="http://www.w3.org/2000/svg">
<path fill-rule="evenodd" clip-rule="evenodd" d="M31.3677 0H16.6323C3.18419 0 0 3.18419 0 16.6323V31.3677C0 44.8158 3.18419 48 16.6323 48H31.3677C44.8158 48 48 44.8158 48 31.3677V16.6323C48 3.18419 44.8158 0 31.3677 0ZM38.2442 15.2435C39.2943 15.2435 39.5314 15.7855 39.2943 16.5307C38.9243 18.2386 35.8512 22.7692 34.8994 24.1724C34.7185 24.4391 34.6142 24.5928 34.6197 24.5928C34.247 25.2025 34.1115 25.4735 34.6197 26.151C34.8033 26.4015 35.1928 26.7837 35.638 27.2205C36.0958 27.6698 36.6125 28.1768 37.0247 28.6577C38.5152 30.3514 39.6669 31.7742 39.9718 32.7565C40.2428 33.7389 39.7686 34.247 38.7523 34.247H35.2633C34.3386 34.247 33.862 33.716 32.8462 32.5843C32.4107 32.0991 31.8761 31.5034 31.1645 30.7918C29.0981 28.7932 28.1835 28.5222 27.6754 28.5222C26.964 28.5222 26.7608 28.6916 26.7608 29.7078V32.8581C26.7608 33.705 26.4898 34.2131 24.2541 34.2131C20.5618 34.2131 16.463 31.9774 13.5837 27.8109C9.24774 21.7135 8.06213 17.1066 8.06213 16.1919C8.06213 15.6838 8.23151 15.2096 9.24774 15.2096H12.7707C13.6514 15.2096 13.9902 15.5822 14.3289 16.5646C16.0565 21.5441 18.9358 25.9139 20.1214 25.9139C20.5618 25.9139 20.765 25.7107 20.765 24.5928V19.4439C20.6814 17.9804 20.1719 17.3427 19.7941 16.8699C19.5598 16.5766 19.3762 16.3468 19.3762 16.0226C19.3762 15.6161 19.7149 15.2096 20.2569 15.2096H25.7446C26.4898 15.2096 26.7608 15.6161 26.7608 16.4968V23.4411C26.7608 24.1863 27.0657 24.4573 27.3028 24.4573C27.7432 24.4573 28.1158 24.1863 28.9288 23.3733C31.4355 20.5617 33.2308 16.2258 33.2308 16.2258C33.4679 15.7177 33.8744 15.2435 34.7551 15.2435H38.2442Z" fill="white"/>
</svg>
